<mxfile host="app.diagrams.net" modified="2023-10-07T09:20:49.237Z" agent="Mozilla/5.0 (Windows NT 10.0; Win64; x64) AppleWebKit/537.36 (KHTML, like Gecko) Chrome/117.0.0.0 Safari/537.36" etag="HSFGOUsyqmuTrRYGpz0I" version="21.8.2" type="github">
  <diagram name="第 1 页" id="tkRJLeNcwBW7615mryf4">
    <mxGraphModel dx="1434" dy="750" grid="1" gridSize="10" guides="1" tooltips="1" connect="1" arrows="1" fold="1" page="1" pageScale="1" pageWidth="827" pageHeight="1169" math="0" shadow="0">
      <root>
        <mxCell id="0" />
        <mxCell id="1" parent="0" />
        <mxCell id="bcelHQSqTHAFJxUlAlLa-4" value="" style="edgeStyle=orthogonalEdgeStyle;rounded=0;orthogonalLoop=1;jettySize=auto;html=1;startArrow=none;endArrow=none;segment=10;curved=1;sourcePerimeterSpacing=0;targetPerimeterSpacing=0;noEdgeStyle=1;orthogonal=1;" edge="1" parent="1" source="bcelHQSqTHAFJxUlAlLa-1" target="bcelHQSqTHAFJxUlAlLa-3">
          <mxGeometry relative="1" as="geometry" />
        </mxCell>
        <mxCell id="bcelHQSqTHAFJxUlAlLa-6" value="" style="edgeStyle=orthogonalEdgeStyle;rounded=0;orthogonalLoop=1;jettySize=auto;html=1;startArrow=none;endArrow=none;segment=10;curved=1;sourcePerimeterSpacing=0;targetPerimeterSpacing=0;noEdgeStyle=1;orthogonal=1;" edge="1" parent="1" source="bcelHQSqTHAFJxUlAlLa-1" target="bcelHQSqTHAFJxUlAlLa-5">
          <mxGeometry relative="1" as="geometry" />
        </mxCell>
        <mxCell id="bcelHQSqTHAFJxUlAlLa-8" value="" style="edgeStyle=orthogonalEdgeStyle;rounded=0;orthogonalLoop=1;jettySize=auto;html=1;startArrow=none;endArrow=none;segment=10;curved=1;sourcePerimeterSpacing=0;targetPerimeterSpacing=0;noEdgeStyle=1;orthogonal=1;" edge="1" parent="1" source="bcelHQSqTHAFJxUlAlLa-1" target="bcelHQSqTHAFJxUlAlLa-7">
          <mxGeometry relative="1" as="geometry" />
        </mxCell>
        <mxCell id="bcelHQSqTHAFJxUlAlLa-10" value="" style="edgeStyle=orthogonalEdgeStyle;rounded=0;orthogonalLoop=1;jettySize=auto;html=1;startArrow=none;endArrow=none;segment=10;curved=1;sourcePerimeterSpacing=0;targetPerimeterSpacing=0;noEdgeStyle=1;orthogonal=1;" edge="1" parent="1" source="bcelHQSqTHAFJxUlAlLa-1" target="bcelHQSqTHAFJxUlAlLa-9">
          <mxGeometry relative="1" as="geometry" />
        </mxCell>
        <mxCell id="bcelHQSqTHAFJxUlAlLa-12" value="" style="edgeStyle=orthogonalEdgeStyle;rounded=0;orthogonalLoop=1;jettySize=auto;html=1;startArrow=none;endArrow=none;segment=10;curved=1;sourcePerimeterSpacing=0;targetPerimeterSpacing=0;noEdgeStyle=1;orthogonal=1;" edge="1" parent="1" source="bcelHQSqTHAFJxUlAlLa-1" target="bcelHQSqTHAFJxUlAlLa-11">
          <mxGeometry relative="1" as="geometry" />
        </mxCell>
        <mxCell id="bcelHQSqTHAFJxUlAlLa-21" value="" style="edgeStyle=orthogonalEdgeStyle;rounded=0;orthogonalLoop=1;jettySize=auto;html=1;startArrow=none;endArrow=none;segment=10;curved=1;sourcePerimeterSpacing=0;targetPerimeterSpacing=0;exitDx=0;exitDy=0;entryDx=0;entryDy=0;noEdgeStyle=1;orthogonal=1;" edge="1" parent="1" source="bcelHQSqTHAFJxUlAlLa-1" target="bcelHQSqTHAFJxUlAlLa-20">
          <mxGeometry relative="1" as="geometry">
            <mxPoint x="135" y="530" as="sourcePoint" />
            <mxPoint x="225" y="120" as="targetPoint" />
          </mxGeometry>
        </mxCell>
        <mxCell id="bcelHQSqTHAFJxUlAlLa-27" value="" style="edgeStyle=orthogonalEdgeStyle;rounded=0;orthogonalLoop=1;jettySize=auto;html=1;startArrow=none;endArrow=none;segment=10;curved=1;sourcePerimeterSpacing=0;targetPerimeterSpacing=0;noEdgeStyle=1;orthogonal=1;" edge="1" parent="1" source="bcelHQSqTHAFJxUlAlLa-1" target="bcelHQSqTHAFJxUlAlLa-26">
          <mxGeometry relative="1" as="geometry" />
        </mxCell>
        <mxCell id="bcelHQSqTHAFJxUlAlLa-44" value="" style="edgeStyle=orthogonalEdgeStyle;rounded=0;orthogonalLoop=1;jettySize=auto;html=1;startArrow=none;endArrow=none;segment=10;curved=1;sourcePerimeterSpacing=0;targetPerimeterSpacing=0;noEdgeStyle=1;orthogonal=1;" edge="1" parent="1" source="bcelHQSqTHAFJxUlAlLa-1" target="bcelHQSqTHAFJxUlAlLa-43">
          <mxGeometry relative="1" as="geometry" />
        </mxCell>
        <mxCell id="bcelHQSqTHAFJxUlAlLa-1" value="Vue Router v3.x" style="whiteSpace=wrap;html=1;rounded=1;arcSize=50;align=center;verticalAlign=middle;strokeWidth=1;autosize=1;spacing=4;treeFolding=1;treeMoving=1;newEdgeStyle={&quot;edgeStyle&quot;:&quot;entityRelationEdgeStyle&quot;,&quot;startArrow&quot;:&quot;none&quot;,&quot;endArrow&quot;:&quot;none&quot;,&quot;segment&quot;:10,&quot;curved&quot;:1,&quot;sourcePerimeterSpacing&quot;:0,&quot;targetPerimeterSpacing&quot;:0};" vertex="1" parent="1">
          <mxGeometry x="690" y="476.5" width="130" height="30" as="geometry" />
        </mxCell>
        <mxCell id="bcelHQSqTHAFJxUlAlLa-3" value="routes" style="whiteSpace=wrap;html=1;rounded=1;arcSize=50;strokeWidth=1;spacing=4;" vertex="1" parent="1">
          <mxGeometry x="940" y="64.00000000000006" width="120" height="20" as="geometry" />
        </mxCell>
        <mxCell id="bcelHQSqTHAFJxUlAlLa-5" value="router-view" style="whiteSpace=wrap;html=1;rounded=1;arcSize=50;strokeWidth=1;spacing=4;" vertex="1" parent="1">
          <mxGeometry x="940" y="124.00000000000006" width="120" height="20" as="geometry" />
        </mxCell>
        <mxCell id="bcelHQSqTHAFJxUlAlLa-7" value="router-link" style="whiteSpace=wrap;html=1;rounded=1;arcSize=50;strokeWidth=1;spacing=4;" vertex="1" parent="1">
          <mxGeometry x="940" y="184.00000000000006" width="120" height="20" as="geometry" />
        </mxCell>
        <mxCell id="bcelHQSqTHAFJxUlAlLa-9" value="路由传参" style="whiteSpace=wrap;html=1;rounded=1;arcSize=50;strokeWidth=1;spacing=4;" vertex="1" parent="1">
          <mxGeometry x="940" y="244.00000000000006" width="120" height="20" as="geometry" />
        </mxCell>
        <mxCell id="bcelHQSqTHAFJxUlAlLa-14" value="" style="edgeStyle=orthogonalEdgeStyle;rounded=0;orthogonalLoop=1;jettySize=auto;html=1;startArrow=none;endArrow=none;segment=10;curved=1;sourcePerimeterSpacing=0;targetPerimeterSpacing=0;exitDx=0;exitDy=0;noEdgeStyle=1;orthogonal=1;" edge="1" parent="1" source="bcelHQSqTHAFJxUlAlLa-11" target="bcelHQSqTHAFJxUlAlLa-13">
          <mxGeometry relative="1" as="geometry">
            <mxPoint x="300" y="585" as="sourcePoint" />
          </mxGeometry>
        </mxCell>
        <mxCell id="bcelHQSqTHAFJxUlAlLa-17" value="" style="edgeStyle=orthogonalEdgeStyle;rounded=0;orthogonalLoop=1;jettySize=auto;html=1;startArrow=none;endArrow=none;segment=10;curved=1;sourcePerimeterSpacing=0;targetPerimeterSpacing=0;noEdgeStyle=1;orthogonal=1;" edge="1" parent="1" source="bcelHQSqTHAFJxUlAlLa-11" target="bcelHQSqTHAFJxUlAlLa-16">
          <mxGeometry relative="1" as="geometry" />
        </mxCell>
        <mxCell id="bcelHQSqTHAFJxUlAlLa-19" value="" style="edgeStyle=orthogonalEdgeStyle;rounded=0;orthogonalLoop=1;jettySize=auto;html=1;startArrow=none;endArrow=none;segment=10;curved=1;sourcePerimeterSpacing=0;targetPerimeterSpacing=0;noEdgeStyle=1;orthogonal=1;" edge="1" parent="1" source="bcelHQSqTHAFJxUlAlLa-11" target="bcelHQSqTHAFJxUlAlLa-18">
          <mxGeometry relative="1" as="geometry" />
        </mxCell>
        <mxCell id="bcelHQSqTHAFJxUlAlLa-11" value="router" style="whiteSpace=wrap;html=1;rounded=1;arcSize=50;align=center;verticalAlign=middle;strokeWidth=1;autosize=1;spacing=4;treeFolding=1;treeMoving=1;newEdgeStyle={&quot;edgeStyle&quot;:&quot;entityRelationEdgeStyle&quot;,&quot;startArrow&quot;:&quot;none&quot;,&quot;endArrow&quot;:&quot;none&quot;,&quot;segment&quot;:10,&quot;curved&quot;:1,&quot;sourcePerimeterSpacing&quot;:0,&quot;targetPerimeterSpacing&quot;:0};" vertex="1" parent="1">
          <mxGeometry x="940" y="324.00000000000006" width="120" height="20" as="geometry" />
        </mxCell>
        <mxCell id="bcelHQSqTHAFJxUlAlLa-13" value="push" style="whiteSpace=wrap;html=1;rounded=1;arcSize=50;strokeWidth=1;spacing=4;" vertex="1" parent="1">
          <mxGeometry x="1180" y="264.00000000000006" width="120" height="20" as="geometry" />
        </mxCell>
        <mxCell id="bcelHQSqTHAFJxUlAlLa-16" value="replace" style="whiteSpace=wrap;html=1;rounded=1;arcSize=50;strokeWidth=1;spacing=4;" vertex="1" parent="1">
          <mxGeometry x="1180" y="324.00000000000006" width="120" height="20" as="geometry" />
        </mxCell>
        <mxCell id="bcelHQSqTHAFJxUlAlLa-18" value="go" style="whiteSpace=wrap;html=1;rounded=1;arcSize=50;strokeWidth=1;spacing=4;" vertex="1" parent="1">
          <mxGeometry x="1180" y="384.00000000000006" width="120" height="20" as="geometry" />
        </mxCell>
        <mxCell id="bcelHQSqTHAFJxUlAlLa-23" value="" style="edgeStyle=orthogonalEdgeStyle;rounded=0;orthogonalLoop=1;jettySize=auto;html=1;startArrow=none;endArrow=none;segment=10;curved=1;sourcePerimeterSpacing=0;targetPerimeterSpacing=0;noEdgeStyle=1;orthogonal=1;" edge="1" parent="1" source="bcelHQSqTHAFJxUlAlLa-20" target="bcelHQSqTHAFJxUlAlLa-22">
          <mxGeometry relative="1" as="geometry" />
        </mxCell>
        <mxCell id="bcelHQSqTHAFJxUlAlLa-25" value="" style="edgeStyle=orthogonalEdgeStyle;rounded=0;orthogonalLoop=1;jettySize=auto;html=1;startArrow=none;endArrow=none;segment=10;curved=1;sourcePerimeterSpacing=0;targetPerimeterSpacing=0;noEdgeStyle=1;orthogonal=1;" edge="1" parent="1" source="bcelHQSqTHAFJxUlAlLa-20" target="bcelHQSqTHAFJxUlAlLa-24">
          <mxGeometry relative="1" as="geometry" />
        </mxCell>
        <mxCell id="bcelHQSqTHAFJxUlAlLa-20" value="mode" style="whiteSpace=wrap;html=1;rounded=1;arcSize=50;align=center;verticalAlign=middle;strokeWidth=1;autosize=1;spacing=4;treeFolding=1;treeMoving=1;newEdgeStyle={&quot;edgeStyle&quot;:&quot;entityRelationEdgeStyle&quot;,&quot;startArrow&quot;:&quot;none&quot;,&quot;endArrow&quot;:&quot;none&quot;,&quot;segment&quot;:10,&quot;curved&quot;:1,&quot;sourcePerimeterSpacing&quot;:0,&quot;targetPerimeterSpacing&quot;:0};" vertex="1" parent="1">
          <mxGeometry x="940" y="888.9999999999999" width="70" height="30" as="geometry" />
        </mxCell>
        <mxCell id="bcelHQSqTHAFJxUlAlLa-22" value="history" style="whiteSpace=wrap;html=1;rounded=1;arcSize=50;strokeWidth=1;spacing=4;" vertex="1" parent="1">
          <mxGeometry x="1130" y="863.9999999999999" width="120" height="20" as="geometry" />
        </mxCell>
        <mxCell id="bcelHQSqTHAFJxUlAlLa-24" value="hash" style="whiteSpace=wrap;html=1;rounded=1;arcSize=50;strokeWidth=1;spacing=4;" vertex="1" parent="1">
          <mxGeometry x="1130" y="923.9999999999999" width="120" height="20" as="geometry" />
        </mxCell>
        <mxCell id="bcelHQSqTHAFJxUlAlLa-29" value="" style="edgeStyle=orthogonalEdgeStyle;rounded=0;orthogonalLoop=1;jettySize=auto;html=1;startArrow=none;endArrow=none;segment=10;curved=1;sourcePerimeterSpacing=0;targetPerimeterSpacing=0;noEdgeStyle=1;orthogonal=1;" edge="1" parent="1" source="bcelHQSqTHAFJxUlAlLa-26" target="bcelHQSqTHAFJxUlAlLa-28">
          <mxGeometry relative="1" as="geometry" />
        </mxCell>
        <mxCell id="bcelHQSqTHAFJxUlAlLa-30" value="" style="edgeStyle=orthogonalEdgeStyle;rounded=0;orthogonalLoop=1;jettySize=auto;html=1;startArrow=none;endArrow=none;segment=10;curved=1;sourcePerimeterSpacing=0;targetPerimeterSpacing=0;noEdgeStyle=1;orthogonal=1;" edge="1" parent="1" source="bcelHQSqTHAFJxUlAlLa-26" target="bcelHQSqTHAFJxUlAlLa-28">
          <mxGeometry relative="1" as="geometry" />
        </mxCell>
        <mxCell id="bcelHQSqTHAFJxUlAlLa-32" value="" style="edgeStyle=orthogonalEdgeStyle;rounded=0;orthogonalLoop=1;jettySize=auto;html=1;startArrow=none;endArrow=none;segment=10;curved=1;sourcePerimeterSpacing=0;targetPerimeterSpacing=0;noEdgeStyle=1;orthogonal=1;" edge="1" parent="1" source="bcelHQSqTHAFJxUlAlLa-26" target="bcelHQSqTHAFJxUlAlLa-31">
          <mxGeometry relative="1" as="geometry" />
        </mxCell>
        <mxCell id="bcelHQSqTHAFJxUlAlLa-34" value="" style="edgeStyle=orthogonalEdgeStyle;rounded=0;orthogonalLoop=1;jettySize=auto;html=1;startArrow=none;endArrow=none;segment=10;curved=1;sourcePerimeterSpacing=0;targetPerimeterSpacing=0;noEdgeStyle=1;orthogonal=1;" edge="1" parent="1" source="bcelHQSqTHAFJxUlAlLa-26" target="bcelHQSqTHAFJxUlAlLa-33">
          <mxGeometry relative="1" as="geometry" />
        </mxCell>
        <mxCell id="bcelHQSqTHAFJxUlAlLa-36" value="" style="edgeStyle=orthogonalEdgeStyle;rounded=0;orthogonalLoop=1;jettySize=auto;html=1;startArrow=none;endArrow=none;segment=10;curved=1;sourcePerimeterSpacing=0;targetPerimeterSpacing=0;noEdgeStyle=1;orthogonal=1;" edge="1" parent="1" source="bcelHQSqTHAFJxUlAlLa-26" target="bcelHQSqTHAFJxUlAlLa-35">
          <mxGeometry relative="1" as="geometry" />
        </mxCell>
        <mxCell id="bcelHQSqTHAFJxUlAlLa-38" value="" style="edgeStyle=orthogonalEdgeStyle;rounded=0;orthogonalLoop=1;jettySize=auto;html=1;startArrow=none;endArrow=none;segment=10;curved=1;sourcePerimeterSpacing=0;targetPerimeterSpacing=0;noEdgeStyle=1;orthogonal=1;" edge="1" parent="1" source="bcelHQSqTHAFJxUlAlLa-26" target="bcelHQSqTHAFJxUlAlLa-37">
          <mxGeometry relative="1" as="geometry" />
        </mxCell>
        <mxCell id="bcelHQSqTHAFJxUlAlLa-40" value="" style="edgeStyle=orthogonalEdgeStyle;rounded=0;orthogonalLoop=1;jettySize=auto;html=1;startArrow=none;endArrow=none;segment=10;curved=1;sourcePerimeterSpacing=0;targetPerimeterSpacing=0;noEdgeStyle=1;orthogonal=1;" edge="1" parent="1" source="bcelHQSqTHAFJxUlAlLa-26" target="bcelHQSqTHAFJxUlAlLa-39">
          <mxGeometry relative="1" as="geometry" />
        </mxCell>
        <mxCell id="bcelHQSqTHAFJxUlAlLa-42" value="" style="edgeStyle=orthogonalEdgeStyle;rounded=0;orthogonalLoop=1;jettySize=auto;html=1;startArrow=none;endArrow=none;segment=10;curved=1;sourcePerimeterSpacing=0;targetPerimeterSpacing=0;noEdgeStyle=1;orthogonal=1;" edge="1" parent="1" source="bcelHQSqTHAFJxUlAlLa-26" target="bcelHQSqTHAFJxUlAlLa-41">
          <mxGeometry relative="1" as="geometry" />
        </mxCell>
        <mxCell id="bcelHQSqTHAFJxUlAlLa-26" value="路由守卫" style="whiteSpace=wrap;html=1;rounded=1;arcSize=50;align=center;verticalAlign=middle;strokeWidth=1;autosize=1;spacing=4;treeFolding=1;treeMoving=1;newEdgeStyle={&quot;edgeStyle&quot;:&quot;entityRelationEdgeStyle&quot;,&quot;startArrow&quot;:&quot;none&quot;,&quot;endArrow&quot;:&quot;none&quot;,&quot;segment&quot;:10,&quot;curved&quot;:1,&quot;sourcePerimeterSpacing&quot;:0,&quot;targetPerimeterSpacing&quot;:0};" vertex="1" parent="1">
          <mxGeometry x="940" y="619" width="90" height="30" as="geometry" />
        </mxCell>
        <mxCell id="bcelHQSqTHAFJxUlAlLa-28" value="beforeEach" style="whiteSpace=wrap;html=1;rounded=1;arcSize=50;strokeWidth=1;spacing=4;" vertex="1" parent="1">
          <mxGeometry x="1150" y="444" width="120" height="20" as="geometry" />
        </mxCell>
        <mxCell id="bcelHQSqTHAFJxUlAlLa-31" value="beforeResolve" style="whiteSpace=wrap;html=1;rounded=1;arcSize=50;strokeWidth=1;spacing=4;" vertex="1" parent="1">
          <mxGeometry x="1150" y="504" width="120" height="20" as="geometry" />
        </mxCell>
        <mxCell id="bcelHQSqTHAFJxUlAlLa-33" value="afterEach" style="whiteSpace=wrap;html=1;rounded=1;arcSize=50;strokeWidth=1;spacing=4;" vertex="1" parent="1">
          <mxGeometry x="1150" y="564" width="120" height="20" as="geometry" />
        </mxCell>
        <mxCell id="bcelHQSqTHAFJxUlAlLa-35" value="beforeEnter" style="whiteSpace=wrap;html=1;rounded=1;arcSize=50;strokeWidth=1;spacing=4;" vertex="1" parent="1">
          <mxGeometry x="1150" y="624" width="120" height="20" as="geometry" />
        </mxCell>
        <mxCell id="bcelHQSqTHAFJxUlAlLa-37" value="beforeRouteEnter" style="whiteSpace=wrap;html=1;rounded=1;arcSize=50;strokeWidth=1;spacing=4;" vertex="1" parent="1">
          <mxGeometry x="1150" y="684" width="120" height="20" as="geometry" />
        </mxCell>
        <mxCell id="bcelHQSqTHAFJxUlAlLa-39" value="beforeRouteUpdate" style="whiteSpace=wrap;html=1;rounded=1;arcSize=50;strokeWidth=1;spacing=4;" vertex="1" parent="1">
          <mxGeometry x="1150" y="744" width="120" height="20" as="geometry" />
        </mxCell>
        <mxCell id="bcelHQSqTHAFJxUlAlLa-41" value="beforeRouteLeave" style="whiteSpace=wrap;html=1;rounded=1;arcSize=50;strokeWidth=1;spacing=4;" vertex="1" parent="1">
          <mxGeometry x="1150" y="804" width="120" height="20" as="geometry" />
        </mxCell>
        <mxCell id="bcelHQSqTHAFJxUlAlLa-43" value="meta" style="whiteSpace=wrap;html=1;rounded=1;arcSize=50;strokeWidth=1;spacing=4;" vertex="1" parent="1">
          <mxGeometry x="940" y="791.0833333333333" width="120" height="20" as="geometry" />
        </mxCell>
        <mxCell id="bcelHQSqTHAFJxUlAlLa-50" value="" style="edgeStyle=orthogonalEdgeStyle;rounded=0;orthogonalLoop=1;jettySize=auto;html=1;startArrow=none;endArrow=none;segment=10;curved=1;sourcePerimeterSpacing=0;targetPerimeterSpacing=0;noEdgeStyle=1;orthogonal=1;" edge="1" parent="1" source="bcelHQSqTHAFJxUlAlLa-48" target="bcelHQSqTHAFJxUlAlLa-49">
          <mxGeometry relative="1" as="geometry" />
        </mxCell>
        <mxCell id="bcelHQSqTHAFJxUlAlLa-52" value="" style="edgeStyle=orthogonalEdgeStyle;rounded=0;orthogonalLoop=1;jettySize=auto;html=1;startArrow=none;endArrow=none;segment=10;curved=1;sourcePerimeterSpacing=0;targetPerimeterSpacing=0;noEdgeStyle=1;orthogonal=1;" edge="1" parent="1" source="bcelHQSqTHAFJxUlAlLa-48" target="bcelHQSqTHAFJxUlAlLa-51">
          <mxGeometry relative="1" as="geometry" />
        </mxCell>
        <mxCell id="bcelHQSqTHAFJxUlAlLa-54" value="" style="edgeStyle=orthogonalEdgeStyle;rounded=0;orthogonalLoop=1;jettySize=auto;html=1;startArrow=none;endArrow=none;segment=10;curved=1;sourcePerimeterSpacing=0;targetPerimeterSpacing=0;noEdgeStyle=1;orthogonal=1;" edge="1" parent="1" source="bcelHQSqTHAFJxUlAlLa-48" target="bcelHQSqTHAFJxUlAlLa-53">
          <mxGeometry relative="1" as="geometry" />
        </mxCell>
        <mxCell id="bcelHQSqTHAFJxUlAlLa-48" value="Vue Router v4.x" style="whiteSpace=wrap;html=1;rounded=1;arcSize=50;align=center;verticalAlign=middle;strokeWidth=1;autosize=1;spacing=4;treeFolding=1;treeMoving=1;newEdgeStyle={&quot;edgeStyle&quot;:&quot;entityRelationEdgeStyle&quot;,&quot;startArrow&quot;:&quot;none&quot;,&quot;endArrow&quot;:&quot;none&quot;,&quot;segment&quot;:10,&quot;curved&quot;:1,&quot;sourcePerimeterSpacing&quot;:0,&quot;targetPerimeterSpacing&quot;:0};direction=west;" vertex="1" parent="1">
          <mxGeometry x="20" y="328" width="130" height="30" as="geometry" />
        </mxCell>
        <mxCell id="bcelHQSqTHAFJxUlAlLa-49" value="router-link" style="whiteSpace=wrap;html=1;rounded=1;arcSize=50;strokeWidth=1;spacing=4;direction=west;" vertex="1" parent="1">
          <mxGeometry x="250" y="268" width="120" height="20" as="geometry" />
        </mxCell>
        <mxCell id="bcelHQSqTHAFJxUlAlLa-51" value="router-view" style="whiteSpace=wrap;html=1;rounded=1;arcSize=50;strokeWidth=1;spacing=4;direction=west;" vertex="1" parent="1">
          <mxGeometry x="260" y="328" width="120" height="20" as="geometry" />
        </mxCell>
        <mxCell id="bcelHQSqTHAFJxUlAlLa-53" value="动态路由" style="whiteSpace=wrap;html=1;rounded=1;arcSize=50;strokeWidth=1;spacing=4;direction=west;" vertex="1" parent="1">
          <mxGeometry x="250" y="428" width="120" height="20" as="geometry" />
        </mxCell>
      </root>
    </mxGraphModel>
  </diagram>
</mxfile>
